<svg version="1.1" xmlns="http://www.w3.org/2000/svg" xmlns:xlink="http://www.w3.org/1999/xlink" x="0px" y="0px" viewBox="0 0 79.7254 63.9444" style="enable-background:new 0 0 79.7254 63.9444;" xml:space="preserve">
  <g>
    <path d="M3.798,18.6041c-1.5613,0-2.938,0.9159-3.5438,2.4115c-0.4522,1.1159-0.2754,2.3912,0.3265,3.4346l6.4104,11.1079c0.1169,0.2029,0.4087,0.2029,0.5256,0l0.4106-0.711c0.0801-0.1382,0.0801-0.3082,0-0.4463l-6.3437-10.989c-0.171-0.2957-0.2598-0.6377-0.2386-0.9788c0.0918-1.5023,1.1932-2.4888,2.4955-2.4888l22.2069,0.0097c0-0.4473,0-0.8946,0-1.341L3.798,18.6041z"/>
    <path d="M27.7053,61.1851c-0.428,0.742-1.1749,1.2889-2.0299,1.3449c-0.9574,0.0628-1.828-0.4058-2.3004-1.2241l-9.276-16.1095c-0.0212-0.0367-0.0754-0.0376-0.0966,0l-0.7005,1.2019c-0.0058,0.0107-0.0058,0.0232,0,0.0339l9.2131,16.0197c0.2241,0.3884,0.5469,0.7188,0.941,0.9314c2.1323,1.1526,4.3902,0.4444,5.423-1.3449l7.4568-12.9145c-0.6802,0.2338-1.3719,0.399-2.0096,0.5942L27.7053,61.1851z"/>
    <path d="M12.4035,46.8619c-0.6841,0-1.3777-0.1739-2.0116-0.5401c-0.9342-0.5391-1.6019-1.4105-1.881-2.4521c-0.2793-1.0415-0.1362-2.1303,0.4029-3.0637c0.5391-0.9332,1.4105-1.6019,2.4521-1.881c1.0406-0.2811,2.1303-0.1353,3.0637,0.4029c0.9342,0.5391,1.6019,1.4105,1.881,2.4521c0.2793,1.0415,0.1362,2.1303-0.4029,3.0637C15.1599,46.1383,13.7996,46.8619,12.4035,46.8619z M12.415,40.1685c-0.23,0-0.4627,0.031-0.6917,0.0918c-0.685,0.1836-1.2579,0.6231-1.6115,1.2367c-0.3546,0.6145-0.4483,1.3294-0.2647,2.0153c0.1836,0.685,0.6231,1.2579,1.2367,1.6115c1.2666,0.7314,2.8945,0.2966,3.6269-0.972c0.3546-0.6135,0.4483-1.3294,0.2647-2.0144c-0.1836-0.685-0.6231-1.2579-1.2367-1.6115C13.3291,40.2892,12.875,40.1685,12.415,40.1685z"/>
    <path d="M25.7411,32.7166c-0.3507,0-0.7044-0.0464-1.0521-0.1391c-1.0415-0.2793-1.913-0.9478-2.4521-1.8811c-0.5391-0.9333-0.6821-2.0221-0.4029-3.0637c0.2793-1.0425,0.9478-1.913,1.881-2.4521c0.9333-0.5391,2.0202-0.6831,3.0637-0.4029c1.0415,0.2793,1.912,0.9478,2.4521,1.8811l0,0c1.113,1.9284,0.4502,4.4027-1.4772,5.5157C27.1314,32.533,26.4406,32.7166,25.7411,32.7166z M25.7305,26.0232c-0.4502,0-0.9063,0.114-1.3226,0.3555c-0.6135,0.3546-1.0531,0.9266-1.2367,1.6115c-0.1836,0.685-0.0889,1.4,0.2657,2.0144c0.3546,0.6145,0.9266,1.0541,1.6115,1.2367c0.6859,0.1836,1.4,0.0889,2.0153-0.2647c0.6135-0.3546,1.0531-0.9266,1.2367-1.6115c0.1836-0.685,0.0889-1.4-0.2657-2.0144l0,0C27.542,26.4994,26.6484,26.0232,25.7305,26.0232z"/>
    <path d="M30.3863,3.396c-1.3526-0.7806-3.0028-0.6753-4.2752,0.3159c-0.9497,0.7401-1.4347,1.9333-1.4347,3.1381l0.0078,12.5657c0,0.2338,0,0.2918,0.2918,0.2918l0.7787-0.0483c0.2193,0,0.2676-0.1324,0.2676-0.2918l0.0406-12.9145c0-0.342,0.0937-0.6821,0.2821-0.9671c0.8309-1.256,2.2782-1.5584,3.4047-0.9072l15.5202,8.9601c0.3826-0.399,0.6831-0.7391,0.9188-1.0183L30.3863,3.396z"/>
    <path d="M29.7999,52.225c-0.742,0.428-1.6627,0.5284-2.4308,0.1497c-0.8599-0.4241-1.3797-1.2647-1.3797-2.2106l-0.0212-18.493c0-0.0425-0.0464-0.0696-0.084-0.0483l-1.2067,0.6908c-0.0107,0.0058-0.0164,0.0174-0.0164,0.029l0.0125,18.3829c0,0.4483,0.114,0.8956,0.3487,1.2772c1.2696,2.0646,3.5796,2.5796,5.3679,1.5468l16.0274-9.2528c-0.9981,0-1.8937,0-2.8849,0L29.7999,52.225z"/>
    <path d="M45.6408,13.4362l6.5388-11.1406c0.1323-0.229,0.3101-0.4377,0.5401-0.5691c1.3961-0.7971,2.8907-0.3459,3.5679,0.828l21.8484,37.843c0.1614,0.2793,0.2425,0.6009,0.2261,0.9227c-0.0754,1.5207-1.1854,2.5207-2.4965,2.5207H32.4336c-0.658,0-1.3207-0.2174-1.7826-0.6859c-0.8328-0.8463-0.971-2.0414-0.4155-3.0028l9.1958-15.9887c0.0213-0.0367-0.0049-0.084-0.0483-0.084l-1.4096-0.0058l-9.1726,15.9298c-0.2212,0.3826-0.3352,0.8212-0.3227,1.2628c0.0705,2.4192,1.8115,4.0182,3.8752,4.0182H75.827c1.0309,0,2.0598-0.3555,2.7748-1.0985c1.257-1.3062,1.4589-3.1352,0.6077-4.6104L57.4278,1.8472c-0.8512-1.4743-2.5351-2.2134-4.2955-1.7797c-1.001,0.2473-1.8241,0.9603-2.34,1.8541l-6.3572,10.8469c-0.1169,0.2019-0.0068,0.3352,0.2628,0.4551l0.6096,0.3516C45.4369,13.6275,45.578,13.5444,45.6408,13.4362z"/>
    <path d="M40.7598,25.4541c-2.227,0-4.0384-1.8115-4.0384-4.0385s1.8115-4.0385,4.0384-4.0385s4.0385,1.8115,4.0385,4.0385S42.9868,25.4541,40.7598,25.4541z M40.7598,18.7615c-1.4637,0-2.655,1.1913-2.655,2.655s1.1913,2.655,2.655,2.655c1.4637,0,2.655-1.1913,2.655-2.655S42.2235,18.7615,40.7598,18.7615z"/>
  </g>
</svg>
