<?xml version="1.0" encoding="utf-8"?>
<!-- Generator: Adobe Illustrator 24.0.1, SVG Export Plug-In . SVG Version: 6.00 Build 0)  -->
<svg version="1.1" id="Livello_1" xmlns="http://www.w3.org/2000/svg" xmlns:xlink="http://www.w3.org/1999/xlink" x="0px" y="0px"
	 viewBox="0 0 360 240" style="enable-background:new 0 0 360 240;" xml:space="preserve">
<style type="text/css">
	.st0{display:none;}
	.st1{display:inline;fill:#FFFFFF;}
	.st2{fill:#00283A;}
</style>
<g>
	<g>
		<g class="st0">
			<path class="st1" d="M98.38,52.229H69c0,0.59,0,1.181,0,1.771c0-0.59,0-1.181,0-1.771H38.797c-3.468,0-5.636,3.755-3.902,6.758
				l29.792,51.601c1.734,3.004,6.069,3.004,7.804,0l29.792-51.601C104.016,55.983,101.848,52.229,98.38,52.229z"/>
		</g>
		<g>
			<g>
				<g>
					<path class="st2" d="M38.183,51.509c-2.157,0-4.058,1.266-4.895,3.331c-0.625,1.542-0.38,3.304,0.451,4.745l8.855,15.344
						c0.161,0.28,0.565,0.28,0.726,0l0.567-0.982c0.11-0.191,0.11-0.426,0-0.617l-8.763-15.179c-0.236-0.409-0.358-0.881-0.33-1.352
						c0.126-2.076,1.649-3.438,3.447-3.437l30.675,0.013c0-0.618,0-1.235,0-1.853L38.183,51.509z"/>
					<path class="st2" d="M71.207,110.329c-0.592,1.025-1.623,1.781-2.804,1.858c-1.322,0.086-2.525-0.56-3.177-1.691L52.411,88.242
						c-0.03-0.051-0.104-0.052-0.134,0l-0.967,1.66c-0.008,0.014-0.008,0.032,0,0.046l12.727,22.128
						c0.31,0.536,0.755,0.992,1.3,1.287c2.945,1.593,6.064,0.614,7.491-1.857l10.3-17.84c-0.94,0.323-1.896,0.551-2.775,0.821
						L71.207,110.329z"/>
				</g>
			</g>
		</g>
		<g>
			<path class="st2" d="M50.07,90.544c-0.946,0-1.903-0.24-2.779-0.746c-1.29-0.745-2.213-1.948-2.599-3.387
				s-0.188-2.942,0.557-4.233s1.948-2.213,3.387-2.599c1.437-0.388,2.942-0.187,4.233,0.557c1.29,0.745,2.213,1.948,2.599,3.387
				s0.188,2.942-0.557,4.233C53.878,89.544,51.999,90.544,50.07,90.544z M50.085,81.298c-0.318,0-0.639,0.042-0.955,0.127
				c-0.946,0.253-1.737,0.86-2.227,1.708c-0.49,0.849-0.62,1.837-0.366,2.784c0.253,0.946,0.86,1.737,1.708,2.227
				c1.749,1.01,3.998,0.409,5.01-1.343c0.49-0.848,0.62-1.836,0.366-2.783c-0.253-0.946-0.86-1.737-1.708-2.227
				C51.348,81.464,50.721,81.298,50.085,81.298z"/>
		</g>
	</g>
	<g>
		<g class="st0">
			<path class="st1" d="M68.325,35.332v59.583c0,3.468,3.754,5.636,6.758,3.902l51.601-29.792c3.004-1.734,3.004-6.069,0-7.804
				L75.083,31.431C72.079,29.697,68.325,31.864,68.325,35.332z"/>
		</g>
		<g>
			<g>
				<g>
					<path class="st2" d="M74.911,30.501c-1.868-1.078-4.147-0.933-5.905,0.437c-1.312,1.023-1.981,2.671-1.982,4.335l0.011,17.357
						c0,0.323,0,0.403,0.403,0.403l1.076-0.067c0.303,0,0.37-0.183,0.37-0.403l0.056-17.839c0-0.472,0.13-0.942,0.39-1.335
						c1.147-1.734,3.147-2.153,4.704-1.253l21.439,12.378c0.528-0.551,0.943-1.021,1.269-1.407L74.911,30.501z"/>
					<path class="st2" d="M74.1,97.952c-1.025,0.592-2.296,0.73-3.357,0.207c-1.188-0.586-1.906-1.747-1.906-3.053l-0.03-25.546
						c0-0.059-0.064-0.096-0.116-0.067l-1.668,0.954c-0.014,0.008-0.023,0.024-0.023,0.04l0.017,25.394
						c0,0.62,0.158,1.237,0.482,1.765c1.754,2.852,4.945,3.563,7.416,2.137L97.055,87c-1.379,0-2.615,0-3.986,0L74.1,97.952z"/>
				</g>
			</g>
		</g>
		<g>
			<path class="st2" d="M68.494,71.004c-0.485,0-0.973-0.063-1.453-0.193c-1.439-0.386-2.642-1.309-3.387-2.599
				c-0.745-1.29-0.943-2.793-0.557-4.232c0.386-1.44,1.309-2.642,2.599-3.387c1.29-0.745,2.791-0.944,4.233-0.557
				c1.439,0.386,2.642,1.309,3.387,2.599v-0.001c1.538,2.664,0.622,6.082-2.041,7.62C70.415,70.751,69.46,71.004,68.494,71.004z
				 M68.479,61.757c-0.622,0-1.252,0.158-1.828,0.491c-0.848,0.489-1.455,1.281-1.709,2.227c-0.253,0.946-0.123,1.934,0.367,2.782
				c0.49,0.849,1.281,1.456,2.227,1.709c0.948,0.254,1.934,0.123,2.784-0.366c0.848-0.49,1.455-1.281,1.708-2.227
				c0.253-0.946,0.123-1.934-0.367-2.782V63.59C70.982,62.415,69.747,61.757,68.479,61.757z"/>
		</g>
	</g>
	<g>
		<g class="st0">
			<path class="st1" d="M104.147,29.254L74.356,80.855c-1.734,3.004,0.434,6.758,3.902,6.758h59.583
				c3.468,0,5.636-3.754,3.902-6.758l-29.792-51.601C110.217,26.25,105.881,26.25,104.147,29.254z"/>
		</g>
		<g>
			<g>
				<g>
					<path class="st2" d="M95.983,44.37l9.033-15.389c0.183-0.317,0.429-0.605,0.746-0.786c1.929-1.102,3.993-0.477,4.929,1.144
						l30.181,52.275c0.223,0.385,0.335,0.83,0.313,1.275c-0.105,2.101-1.638,3.483-3.449,3.483l-59.996,0
						c-0.909,0-1.825-0.3-2.462-0.948c-1.15-1.169-1.341-2.82-0.574-4.149l12.703-22.086c0.03-0.051-0.007-0.116-0.067-0.116
						l-1.948-0.008L72.722,81.07c-0.305,0.528-0.463,1.135-0.445,1.745c0.097,3.342,2.503,5.55,5.353,5.55l60.053,0
						c1.424,0,2.846-0.491,3.833-1.517c1.736-1.805,2.015-4.331,0.839-6.369l-30.089-52.116c-1.176-2.036-3.502-3.057-5.933-2.458
						c-1.383,0.341-2.52,1.327-3.233,2.561l-8.781,14.984c-0.161,0.28-0.009,0.463,0.363,0.629l0.843,0.485
						C95.701,44.634,95.896,44.52,95.983,44.37z"/>
				</g>
			</g>
		</g>
		<g>
			<path class="st2" d="M89.24,60.972c-3.076,0-5.578-2.502-5.578-5.578c0-3.076,2.502-5.578,5.578-5.578s5.578,2.502,5.578,5.578
				C94.818,58.47,92.316,60.972,89.24,60.972z M89.24,51.726c-2.023,0-3.668,1.645-3.668,3.667c0,2.023,1.645,3.668,3.668,3.668
				s3.667-1.645,3.667-3.668C92.907,53.371,91.263,51.726,89.24,51.726z"/>
		</g>
	</g>
</g>
<g>
	<g>
		<path class="st2" d="M108.57,112.844c0.421,0.282,0.667,0.641,0.737,1.08c0.07,0.439-0.053,0.869-0.369,1.291
			c-0.246,0.352-0.553,0.536-0.922,0.553c-0.369,0.018-0.747-0.061-1.132-0.237c-1.3-0.877-2.722-1.562-4.267-2.054
			c-1.546-0.491-3.179-0.737-4.899-0.737c-2.142,0-4.135,0.387-5.979,1.159c-1.844,0.773-3.45,1.862-4.82,3.266
			c-1.37,1.405-2.432,3.073-3.187,5.004c-0.756,1.932-1.133,4.056-1.133,6.373c0,2.389,0.386,4.557,1.159,6.506
			c0.772,1.949,1.852,3.626,3.239,5.03c1.387,1.405,2.994,2.476,4.82,3.213c1.825,0.737,3.792,1.106,5.899,1.106
			c1.72,0,3.345-0.245,4.873-0.737c1.527-0.491,2.958-1.159,4.293-2.002c0.351-0.211,0.719-0.289,1.106-0.237
			c0.386,0.053,0.719,0.256,1.001,0.606c0.281,0.387,0.386,0.808,0.316,1.264c-0.071,0.457-0.299,0.79-0.685,1.001
			c-0.878,0.562-1.915,1.098-3.108,1.606c-1.194,0.51-2.458,0.904-3.792,1.186c-1.335,0.28-2.669,0.421-4.003,0.421
			c-2.528,0-4.908-0.456-7.137-1.369c-2.23-0.913-4.197-2.203-5.9-3.872c-1.704-1.667-3.047-3.66-4.029-5.979
			c-0.983-2.317-1.475-4.898-1.475-7.743c0-2.738,0.482-5.249,1.449-7.532c0.965-2.282,2.292-4.275,3.977-5.979
			c1.686-1.703,3.652-3.029,5.899-3.977c2.247-0.948,4.653-1.422,7.216-1.422c2.001,0,3.933,0.281,5.794,0.843
			C105.375,111.036,107.06,111.826,108.57,112.844z"/>
		<path class="st2" d="M119.737,146.978c-0.492,0-0.887-0.158-1.186-0.474c-0.298-0.316-0.448-0.686-0.448-1.106v-23.599
			c0-0.421,0.158-0.79,0.474-1.106c0.316-0.316,0.702-0.474,1.159-0.474c0.456,0,0.833,0.158,1.132,0.474
			c0.298,0.316,0.448,0.685,0.448,1.106v7.901l-0.79,0.158c0.105-1.229,0.412-2.449,0.922-3.661
			c0.508-1.211,1.202-2.326,2.081-3.345c0.877-1.019,1.922-1.844,3.134-2.476c1.211-0.632,2.572-0.948,4.082-0.948
			c0.632,0,1.246,0.132,1.844,0.395c0.597,0.264,0.896,0.694,0.896,1.291c0,0.526-0.141,0.931-0.421,1.212
			c-0.282,0.281-0.615,0.421-1.001,0.421c-0.316,0-0.658-0.087-1.027-0.264c-0.369-0.175-0.852-0.263-1.448-0.263
			c-0.984,0-1.967,0.289-2.95,0.869c-0.984,0.579-1.879,1.361-2.687,2.344c-0.808,0.983-1.449,2.081-1.923,3.292
			c-0.474,1.212-0.711,2.433-0.711,3.661v13.011c0,0.421-0.158,0.79-0.474,1.106C120.527,146.819,120.159,146.978,119.737,146.978z"
			/>
		<path class="st2" d="M161.456,120.219c0.456,0,0.833,0.158,1.132,0.474c0.298,0.316,0.448,0.685,0.448,1.106v14.854
			c0,3.477-0.983,6.128-2.95,7.954c-1.967,1.826-4.618,2.739-7.954,2.739c-3.336,0-5.979-0.913-7.927-2.739
			c-1.949-1.826-2.924-4.478-2.924-7.954v-14.854c0-0.421,0.158-0.79,0.474-1.106c0.316-0.316,0.702-0.474,1.159-0.474
			c0.456,0,0.833,0.158,1.132,0.474c0.298,0.316,0.448,0.685,0.448,1.106v14.854c0,2.528,0.676,4.451,2.028,5.768
			c1.352,1.317,3.222,1.976,5.61,1.976c2.423,0,4.311-0.658,5.663-1.976c1.352-1.316,2.028-3.239,2.028-5.768v-14.854
			c0-0.421,0.149-0.79,0.448-1.106C160.568,120.377,160.963,120.219,161.456,120.219z"/>
		<path class="st2" d="M186.896,119.429c2.318,0,4.17,0.466,5.557,1.396c1.387,0.931,2.389,2.195,3.002,3.792
			c0.615,1.599,0.922,3.363,0.922,5.294v15.486c0,0.421-0.156,0.79-0.473,1.106c-0.316,0.315-0.686,0.474-1.107,0.474
			c-0.492,0-0.887-0.158-1.184-0.474c-0.299-0.316-0.449-0.686-0.449-1.106v-15.328c0-1.404-0.229-2.687-0.684-3.846
			c-0.457-1.159-1.195-2.08-2.213-2.766c-1.02-0.685-2.371-1.026-4.057-1.026c-1.51,0-2.941,0.342-4.293,1.026
			c-1.352,0.686-2.449,1.606-3.292,2.766s-1.264,2.441-1.264,3.846v15.328c0,0.421-0.158,0.79-0.474,1.106
			c-0.316,0.315-0.685,0.474-1.106,0.474c-0.492,0-0.887-0.158-1.186-0.474c-0.298-0.316-0.448-0.686-0.448-1.106v-23.599
			c0-0.421,0.158-0.79,0.474-1.106c0.316-0.316,0.702-0.474,1.159-0.474c0.456,0,0.833,0.158,1.132,0.474
			c0.298,0.316,0.448,0.685,0.448,1.106v4.425l-1.211,1.896c0.07-1.123,0.43-2.203,1.08-3.239c0.649-1.036,1.483-1.967,2.502-2.792
			s2.15-1.475,3.398-1.949C184.377,119.666,185.633,119.429,186.896,119.429z"/>
		<path class="st2" d="M219.133,119.429c1.72,0,3.283,0.185,4.688,0.553s2.537,0.869,3.397,1.5c0.86,0.633,1.291,1.317,1.291,2.055
			c0,0.352-0.132,0.694-0.396,1.027c-0.263,0.334-0.605,0.5-1.027,0.5c-0.421,0-0.764-0.096-1.026-0.289
			c-0.264-0.192-0.519-0.438-0.764-0.737c-0.246-0.298-0.615-0.554-1.106-0.764c-0.457-0.246-1.115-0.448-1.976-0.606
			s-1.817-0.236-2.871-0.236c-1.967,0-3.739,0.492-5.319,1.475c-1.581,0.983-2.827,2.3-3.74,3.95
			c-0.914,1.651-1.369,3.512-1.369,5.584c0,2.106,0.43,4.003,1.29,5.688s2.071,3.012,3.635,3.977
			c1.562,0.967,3.362,1.449,5.399,1.449c1.403,0,2.492-0.123,3.266-0.369c0.771-0.245,1.439-0.526,2.001-0.843
			c0.667-0.386,1.159-0.764,1.476-1.132c0.315-0.369,0.719-0.554,1.211-0.554c0.422,0,0.755,0.132,1.001,0.396
			c0.245,0.263,0.369,0.605,0.369,1.027c0,0.562-0.413,1.185-1.238,1.869c-0.825,0.686-1.958,1.282-3.397,1.791
			c-1.44,0.509-3.107,0.764-5.004,0.764c-2.6,0-4.891-0.613-6.874-1.843c-1.984-1.229-3.529-2.906-4.636-5.031
			c-1.105-2.124-1.659-4.521-1.659-7.189c0-2.563,0.562-4.899,1.686-7.006c1.124-2.107,2.687-3.801,4.688-5.083
			C214.129,120.07,216.464,119.429,219.133,119.429z"/>
		<path class="st2" d="M249.789,119.85c2.212,0,4.003,0.474,5.373,1.422c1.369,0.948,2.378,2.23,3.028,3.845
			c0.649,1.616,0.975,3.407,0.975,5.373v14.907c0,0.421-0.158,0.79-0.474,1.106c-0.316,0.315-0.686,0.474-1.106,0.474
			c-0.492,0-0.888-0.158-1.186-0.474c-0.299-0.316-0.447-0.686-0.447-1.106V130.49c0-1.439-0.22-2.729-0.658-3.871
			c-0.44-1.141-1.142-2.062-2.107-2.766c-0.966-0.702-2.274-1.054-3.924-1.054c-1.476,0-2.871,0.352-4.188,1.054
			c-1.316,0.703-2.379,1.625-3.187,2.766c-0.809,1.142-1.212,2.432-1.212,3.871v14.907c0,0.421-0.157,0.79-0.474,1.106
			c-0.316,0.315-0.685,0.474-1.106,0.474c-0.492,0-0.887-0.158-1.185-0.474c-0.299-0.316-0.448-0.686-0.448-1.106v-35.819
			c0-0.421,0.158-0.79,0.475-1.106c0.315-0.316,0.702-0.474,1.158-0.474s0.834,0.158,1.133,0.474
			c0.298,0.316,0.447,0.685,0.447,1.106v17.067l-1.211,1.843c0.07-1.088,0.412-2.15,1.027-3.187
			c0.613-1.035,1.413-1.966,2.396-2.792c0.982-0.824,2.071-1.475,3.266-1.949C247.348,120.087,248.56,119.85,249.789,119.85z"/>
		<path class="st2" d="M290.4,119.587c0.456,0,0.834,0.158,1.133,0.474c0.298,0.316,0.447,0.685,0.447,1.106v23.229
			c0,2.845-0.562,5.241-1.686,7.19c-1.124,1.948-2.634,3.424-4.53,4.425c-1.896,1-4.056,1.501-6.479,1.501
			c-1.511,0-2.906-0.167-4.188-0.501c-1.282-0.334-2.327-0.746-3.135-1.237c-0.421-0.246-0.737-0.554-0.948-0.922
			c-0.21-0.369-0.229-0.747-0.053-1.133c0.176-0.492,0.448-0.816,0.816-0.975c0.369-0.158,0.746-0.149,1.133,0.026
			c0.597,0.316,1.457,0.702,2.581,1.159c1.124,0.456,2.405,0.685,3.846,0.685c1.931,0,3.599-0.404,5.004-1.211
			c1.404-0.809,2.502-1.976,3.292-3.503c0.79-1.528,1.186-3.346,1.186-5.452v-3.793l0.368,1.317
			c-0.526,1.054-1.282,2.001-2.265,2.845c-0.983,0.843-2.09,1.501-3.318,1.975c-1.229,0.475-2.547,0.711-3.951,0.711
			c-2.106,0-3.854-0.43-5.241-1.29s-2.423-2.045-3.107-3.556c-0.685-1.51-1.027-3.283-1.027-5.32v-16.171
			c0-0.421,0.149-0.79,0.448-1.106c0.298-0.316,0.692-0.474,1.185-0.474c0.456,0,0.834,0.158,1.133,0.474
			c0.298,0.316,0.447,0.685,0.447,1.106v15.697c0,2.458,0.535,4.354,1.607,5.688c1.07,1.335,2.817,2.002,5.241,2.002
			c1.509,0,2.896-0.359,4.161-1.08c1.264-0.72,2.299-1.667,3.107-2.845c0.808-1.176,1.212-2.431,1.212-3.766v-15.697
			c0-0.421,0.14-0.79,0.421-1.106C289.522,119.745,289.908,119.587,290.4,119.587z"/>
		<path class="st2" d="M97.14,164.746c3.372,0,5.882,0.79,7.533,2.37c1.65,1.58,2.476,3.916,2.476,7.006
			c0,1.651-0.404,3.1-1.211,4.346c-0.808,1.247-2.001,2.212-3.582,2.897c-1.58,0.685-3.529,1.026-5.847,1.026l0.21-2.37
			c1.088,0,2.335,0.149,3.74,0.448c1.404,0.299,2.765,0.825,4.082,1.58s2.405,1.809,3.266,3.16c0.86,1.353,1.291,3.081,1.291,5.188
			c0,2.317-0.378,4.214-1.133,5.688c-0.755,1.476-1.747,2.617-2.976,3.424c-1.229,0.809-2.546,1.361-3.951,1.66
			c-1.405,0.298-2.757,0.447-4.056,0.447H83.866c-0.914,0-1.677-0.307-2.291-0.922c-0.615-0.614-0.922-1.378-0.922-2.291v-30.446
			c0-0.913,0.307-1.677,0.922-2.291c0.614-0.614,1.377-0.922,2.291-0.922H97.14z M96.192,170.962h-9.376l0.685-0.843v9.534
			l-0.632-0.475h9.481c1.018,0,1.931-0.333,2.739-1.001c0.808-0.666,1.211-1.633,1.211-2.896c0-1.51-0.378-2.607-1.132-3.293
			C98.412,171.304,97.42,170.962,96.192,170.962z M96.613,185.395h-9.587l0.474-0.422v11.114l-0.527-0.526h10.008
			c1.615,0,2.897-0.43,3.845-1.29s1.422-2.151,1.422-3.872c0-1.58-0.316-2.721-0.948-3.424c-0.632-0.702-1.388-1.141-2.265-1.316
			C98.158,185.482,97.351,185.395,96.613,185.395z"/>
		<path class="st2" d="M138.437,173.438c0.913,0,1.667,0.308,2.265,0.922c0.597,0.614,0.896,1.378,0.896,2.291v22.387
			c0,3.23-0.606,5.803-1.817,7.717s-2.836,3.292-4.872,4.135c-2.037,0.843-4.319,1.265-6.848,1.265
			c-1.125,0-2.318-0.088-3.582-0.264s-2.3-0.439-3.108-0.79c-1.053-0.457-1.783-1.027-2.186-1.712
			c-0.404-0.685-0.483-1.414-0.237-2.186c0.316-1.02,0.825-1.712,1.527-2.081c0.702-0.369,1.439-0.413,2.212-0.132
			c0.562,0.176,1.299,0.448,2.212,0.816c0.913,0.369,1.966,0.553,3.161,0.553c1.615,0,2.958-0.22,4.029-0.658
			c1.071-0.439,1.878-1.177,2.423-2.212c0.544-1.036,0.816-2.449,0.816-4.24v-3.529l1.106,1.264
			c-0.598,1.159-1.343,2.116-2.239,2.871c-0.896,0.756-1.958,1.326-3.187,1.712c-1.23,0.386-2.634,0.579-4.214,0.579
			c-1.861,0-3.485-0.43-4.872-1.29c-1.388-0.86-2.468-2.055-3.24-3.582c-0.772-1.527-1.159-3.274-1.159-5.241V176.65
			c0-0.913,0.298-1.677,0.896-2.291c0.597-0.614,1.352-0.922,2.265-0.922c0.913,0,1.667,0.308,2.265,0.922
			c0.597,0.614,0.896,1.378,0.896,2.291v13.484c0,2.283,0.5,3.89,1.501,4.82s2.396,1.396,4.188,1.396
			c1.229,0,2.265-0.237,3.108-0.711c0.843-0.475,1.492-1.176,1.949-2.107c0.456-0.93,0.685-2.062,0.685-3.397V176.65
			c0-0.913,0.298-1.677,0.896-2.291C136.769,173.745,137.523,173.438,138.437,173.438z"/>
		<path class="st2" d="M151.657,173.964h12.484c0.843,0,1.545,0.281,2.107,0.843c0.562,0.562,0.843,1.265,0.843,2.107
			c0,0.808-0.281,1.483-0.843,2.027c-0.562,0.545-1.264,0.816-2.107,0.816h-12.484c-0.843,0-1.545-0.28-2.107-0.843
			c-0.562-0.561-0.843-1.264-0.843-2.106c0-0.808,0.281-1.483,0.843-2.028C150.112,174.236,150.814,173.964,151.657,173.964z
			 M157.293,167.38c0.913,0,1.659,0.308,2.239,0.922s0.869,1.378,0.869,2.291v23.44c0,0.492,0.096,0.896,0.29,1.211
			c0.193,0.316,0.456,0.545,0.79,0.686c0.333,0.141,0.693,0.21,1.08,0.21c0.421,0,0.808-0.079,1.159-0.236
			c0.351-0.158,0.755-0.237,1.211-0.237c0.492,0,0.939,0.229,1.343,0.685c0.403,0.457,0.606,1.089,0.606,1.896
			c0,0.983-0.536,1.791-1.606,2.423c-1.072,0.632-2.222,0.948-3.45,0.948c-0.738,0-1.554-0.061-2.45-0.185
			c-0.896-0.122-1.738-0.421-2.528-0.896c-0.79-0.474-1.448-1.202-1.975-2.186c-0.527-0.982-0.79-2.335-0.79-4.056v-23.704
			c0-0.913,0.307-1.677,0.922-2.291C155.616,167.688,156.38,167.38,157.293,167.38z"/>
		<path class="st2" d="M188.793,202.145c-2.985,0-5.575-0.623-7.77-1.869c-2.195-1.246-3.881-2.941-5.057-5.084
			c-1.177-2.141-1.765-4.564-1.765-7.269c0-3.16,0.64-5.855,1.922-8.086c1.282-2.229,2.958-3.941,5.031-5.136
			c2.071-1.193,4.267-1.791,6.584-1.791c1.791,0,3.485,0.369,5.083,1.106s3.011,1.747,4.24,3.029s2.203,2.765,2.924,4.45
			c0.719,1.686,1.08,3.477,1.08,5.373c-0.036,0.843-0.369,1.527-1.001,2.055c-0.632,0.526-1.37,0.79-2.213,0.79h-20.121
			l-1.581-5.268h19.332l-1.159,1.054v-1.423c-0.07-1.018-0.43-1.931-1.079-2.738c-0.65-0.808-1.458-1.449-2.423-1.923
			c-0.967-0.475-1.994-0.711-3.082-0.711c-1.054,0-2.037,0.141-2.949,0.421c-0.914,0.281-1.704,0.756-2.371,1.422
			c-0.667,0.668-1.194,1.563-1.58,2.687c-0.387,1.125-0.579,2.547-0.579,4.267c0,1.896,0.395,3.503,1.185,4.82
			c0.791,1.316,1.809,2.317,3.056,3.002c1.246,0.686,2.572,1.027,3.977,1.027c1.299,0,2.335-0.105,3.108-0.316
			c0.771-0.21,1.396-0.465,1.869-0.764c0.475-0.298,0.904-0.553,1.291-0.764c0.632-0.315,1.229-0.474,1.791-0.474
			c0.771,0,1.413,0.264,1.923,0.79c0.509,0.526,0.764,1.142,0.764,1.844c0,0.948-0.492,1.809-1.476,2.581
			c-0.913,0.772-2.194,1.448-3.845,2.027C192.251,201.855,190.549,202.145,188.793,202.145z"/>
		<path class="st2" d="M207.597,197.246c-0.352-0.491-0.51-1.123-0.475-1.896c0.035-0.771,0.492-1.439,1.37-2.001
			c0.562-0.351,1.159-0.501,1.791-0.448s1.246,0.378,1.844,0.975c1.018,1.019,2.089,1.809,3.213,2.37
			c1.123,0.562,2.528,0.843,4.214,0.843c0.526-0.034,1.106-0.113,1.738-0.236s1.186-0.403,1.659-0.843
			c0.475-0.439,0.711-1.115,0.711-2.028c0-0.772-0.263-1.387-0.79-1.844c-0.526-0.456-1.221-0.843-2.08-1.159
			c-0.861-0.315-1.817-0.613-2.871-0.896c-1.089-0.315-2.204-0.666-3.345-1.053c-1.142-0.387-2.187-0.887-3.135-1.502
			c-0.947-0.613-1.721-1.43-2.317-2.449c-0.598-1.018-0.896-2.3-0.896-3.845c0-1.756,0.491-3.248,1.475-4.478
			c0.983-1.229,2.257-2.177,3.819-2.845c1.562-0.666,3.204-1.001,4.925-1.001c1.088,0,2.229,0.132,3.424,0.396
			c1.193,0.264,2.335,0.685,3.424,1.264c1.089,0.58,2.002,1.344,2.739,2.292c0.386,0.526,0.614,1.158,0.685,1.896
			c0.07,0.737-0.263,1.404-1,2.001c-0.527,0.422-1.142,0.606-1.844,0.554c-0.703-0.053-1.282-0.29-1.738-0.712
			c-0.598-0.771-1.396-1.387-2.397-1.843c-1-0.456-2.151-0.686-3.45-0.686c-0.526,0-1.098,0.062-1.712,0.185
			c-0.614,0.124-1.15,0.387-1.606,0.79c-0.456,0.404-0.685,1.046-0.685,1.923c0,0.809,0.264,1.448,0.79,1.923
			c0.527,0.474,1.238,0.86,2.134,1.158c0.896,0.299,1.852,0.589,2.87,0.869c1.054,0.282,2.125,0.615,3.214,1.001
			c1.088,0.387,2.089,0.896,3.002,1.527c0.913,0.633,1.65,1.449,2.213,2.45c0.561,1,0.843,2.273,0.843,3.818
			c0,1.791-0.527,3.318-1.581,4.583c-1.053,1.264-2.37,2.222-3.95,2.871c-1.58,0.648-3.196,0.974-4.846,0.974
			c-2.072,0-4.145-0.36-6.216-1.079C210.687,200.346,208.966,199.072,207.597,197.246z"/>
	</g>
</g>
</svg>
