<?xml version="1.0" encoding="utf-8"?>
<!-- Generator: Adobe Illustrator 24.0.3, SVG Export Plug-In . SVG Version: 6.00 Build 0)  -->
<svg version="1.1" id="Livello_1" xmlns="http://www.w3.org/2000/svg" xmlns:xlink="http://www.w3.org/1999/xlink" x="0px" y="0px"
	 viewBox="0 0 240.945 155.906" style="enable-background:new 0 0 240.945 155.906;" xml:space="preserve">
<style type="text/css">
	.st0{display:none;}
	.st1{display:inline;fill:#FFFFFF;}
	.st2{fill:#092839;}
</style>
<g>
	<g>
		<g class="st0">
			<path class="st1" d="M136.51,49.923H90.015c0,0.934,0,1.869,0,2.803c0-0.934,0-1.869,0-2.803H42.218
				c-5.489,0-8.919,5.941-6.176,10.695l47.145,81.66c2.744,4.754,9.606,4.754,12.349,0l47.149-81.66
				C145.429,55.864,141.999,49.923,136.51,49.923z"/>
		</g>
		<g>
			<g>
				<g>
					<path class="st2" d="M41.246,48.785c-3.413,0-6.423,2.002-7.747,5.272c-0.988,2.439-0.602,5.227,0.714,7.508l14.013,24.282
						c0.256,0.444,0.893,0.444,1.149,0l0.898-1.554c0.175-0.302,0.175-0.674,0-0.976L36.405,59.294
						c-0.374-0.646-0.568-1.394-0.522-2.14c0.201-3.284,2.608-5.441,5.455-5.441l48.545,0.021c0-0.978,0-1.956,0-2.932
						L41.246,48.785z"/>
					<path class="st2" d="M93.509,141.869c-0.936,1.622-2.568,2.817-4.437,2.94c-2.093,0.137-3.996-0.887-5.029-2.676
						l-20.278-35.216c-0.046-0.08-0.165-0.082-0.211,0l-1.531,2.627c-0.013,0.023-0.013,0.051,0,0.074l20.14,35.02
						c0.49,0.849,1.195,1.571,2.057,2.036c4.661,2.52,9.597,0.972,11.855-2.94l16.301-28.232c-1.487,0.511-2.999,0.872-4.393,1.299
						L93.509,141.869z"/>
				</g>
			</g>
		</g>
		<g>
			<path class="st2" d="M60.058,110.558c-1.495,0-3.012-0.38-4.397-1.181c-2.042-1.179-3.502-3.084-4.112-5.36
				c-0.61-2.277-0.298-4.657,0.881-6.697s3.084-3.502,5.36-4.112c2.275-0.615,4.657-0.296,6.697,0.881
				c2.042,1.179,3.502,3.084,4.112,5.36s0.298,4.657-0.881,6.697C66.084,108.976,63.11,110.558,60.058,110.558z M60.083,95.926
				c-0.503,0-1.012,0.068-1.512,0.201c-1.497,0.401-2.75,1.362-3.523,2.703c-0.775,1.343-0.98,2.906-0.579,4.406
				c0.401,1.497,1.362,2.75,2.703,3.523c2.769,1.599,6.328,0.648,7.929-2.125c0.775-1.341,0.98-2.906,0.579-4.404
				c-0.401-1.497-1.362-2.75-2.703-3.523C62.081,96.19,61.089,95.926,60.083,95.926z"/>
		</g>
	</g>
	<g>
		<g class="st0">
			<path class="st1" d="M88.947,27.318v86.028c0,7.325,7.929,11.904,14.273,8.241l74.503-43.014c6.345-3.662,6.345-12.818,0-16.482
				L103.22,19.077C96.877,15.414,88.947,19.991,88.947,27.318z"/>
		</g>
		<g>
			<g>
				<g>
					<path class="st2" d="M99.37,15.539c-2.957-1.707-6.564-1.476-9.346,0.691c-2.076,1.618-3.136,4.226-3.136,6.86l0.017,27.469
						c0,0.511,0,0.638,0.638,0.638l1.702-0.106c0.479,0,0.585-0.289,0.585-0.638l0.089-28.232c0-0.748,0.205-1.491,0.617-2.114
						c1.816-2.746,4.98-3.407,7.443-1.983l33.928,19.587c0.836-0.872,1.493-1.616,2.009-2.226L99.37,15.539z"/>
					<path class="st2" d="M98.088,122.282c-1.622,0.936-3.635,1.155-5.314,0.327c-1.88-0.927-3.016-2.765-3.016-4.832L89.711,77.35
						c0-0.093-0.101-0.152-0.184-0.106l-2.638,1.51c-0.023,0.013-0.036,0.038-0.036,0.063l0.027,40.186
						c0,0.98,0.249,1.958,0.762,2.792c2.775,4.513,7.825,5.639,11.735,3.381l35.037-20.227c-2.182,0-4.14,0-6.307,0L98.088,122.282z
						"/>
				</g>
			</g>
		</g>
		<g>
			<path class="st2" d="M89.215,79.636c-0.767,0-1.54-0.101-2.3-0.304c-2.277-0.61-4.182-2.072-5.36-4.112
				c-1.179-2.04-1.491-4.421-0.881-6.697c0.61-2.279,2.072-4.182,4.112-5.36c2.04-1.179,4.416-1.493,6.697-0.881
				c2.277,0.61,4.18,2.072,5.36,4.112l0,0c2.433,4.216,0.984,9.625-3.229,12.058C92.254,79.234,90.744,79.636,89.215,79.636z
				 M89.192,65.003c-0.984,0-1.981,0.249-2.891,0.777c-1.341,0.775-2.302,2.025-2.703,3.523c-0.401,1.497-0.194,3.06,0.581,4.404
				c0.775,1.343,2.025,2.304,3.523,2.703c1.5,0.401,3.06,0.194,4.406-0.579c1.341-0.775,2.302-2.025,2.703-3.523
				s0.194-3.06-0.581-4.404l0,0C93.152,66.045,91.198,65.003,89.192,65.003z"/>
		</g>
	</g>
	<g>
		<g class="st0">
			<path class="st1" d="M143.571,17.144l-43.014,74.503c-3.662,6.345,0.917,14.273,8.241,14.273h86.028
				c7.325,0,11.904-7.929,8.241-14.273l-43.014-74.503C156.391,10.8,147.235,10.8,143.571,17.144z"/>
		</g>
		<g>
			<g>
				<g>
					<path class="st2" d="M132.717,37.488l14.294-24.354c0.289-0.501,0.678-0.957,1.181-1.244c3.052-1.742,6.319-0.756,7.8,1.81
						l47.762,82.727c0.353,0.61,0.53,1.314,0.494,2.017c-0.165,3.324-2.591,5.51-5.458,5.51h-94.945c-1.438,0-2.887-0.475-3.897-1.5
						c-1.821-1.85-2.123-4.463-0.908-6.564l20.102-34.952c0.046-0.08-0.011-0.184-0.106-0.184l-3.081-0.013L95.904,95.565
						c-0.484,0.836-0.733,1.795-0.705,2.76c0.154,5.289,3.96,8.784,8.471,8.784h95.036c2.254,0,4.503-0.777,6.066-2.401
						c2.748-2.855,3.189-6.854,1.328-10.079l-47.616-82.475c-1.861-3.223-5.542-4.839-9.39-3.89
						c-2.188,0.541-3.988,2.099-5.115,4.053l-13.897,23.712c-0.256,0.441-0.015,0.733,0.574,0.995l1.333,0.769
						C132.271,37.906,132.579,37.724,132.717,37.488z"/>
				</g>
			</g>
		</g>
		<g>
			<path class="st2" d="M122.047,63.759c-4.868,0-8.828-3.96-8.828-8.828s3.96-8.828,8.828-8.828s8.828,3.96,8.828,8.828
				S126.915,63.759,122.047,63.759z M122.047,49.129c-3.2,0-5.804,2.604-5.804,5.804s2.604,5.804,5.804,5.804
				s5.804-2.604,5.804-5.804S125.246,49.129,122.047,49.129z"/>
		</g>
	</g>
</g>
</svg>
