<svg aria-hidden="true" style="position: absolute; width: 0; height: 0; overflow: hidden;" version="1.1" xmlns="http://www.w3.org/2000/svg" xmlns:xlink="http://www.w3.org/1999/xlink">
  <defs>
    <symbol id="facebook" viewBox="0 0 32 32">
      <path d="M18.478 32v-14.596h4.897l0.735-5.69h-5.632v-3.632c0-1.647 0.456-2.769 2.82-2.769l3.010-0.001v-5.089c-0.521-0.068-2.308-0.223-4.388-0.223-4.343 0-7.317 2.651-7.317 7.519v4.196h-4.912v5.69h4.912v14.596h5.874z"></path>
    </symbol>
    <symbol id="twitter" viewBox="0 0 32 32">
      <path d="M32 6.076c-1.177 0.523-2.443 0.875-3.771 1.033 1.356-0.812 2.397-2.099 2.887-3.632-1.268 0.752-2.673 1.299-4.169 1.593-1.196-1.276-2.904-2.073-4.792-2.073-4.239 0-7.353 3.955-6.396 8.060-5.455-0.273-10.292-2.887-13.531-6.859-1.72 2.951-0.892 6.811 2.031 8.765-1.075-0.035-2.088-0.329-2.972-0.821-0.072 3.041 2.108 5.887 5.265 6.52-0.924 0.251-1.936 0.309-2.965 0.112 0.835 2.608 3.259 4.505 6.133 4.559-2.76 2.164-6.237 3.131-9.72 2.72 2.905 1.863 6.357 2.949 10.064 2.949 12.189 0 19.076-10.295 18.66-19.528 1.283-0.927 2.396-2.083 3.276-3.399z"></path>
    </symbol>
    <symbol id="mail" viewBox="0 0 32 32">
      <path d="M26.667 5.333h-21.333c-1.467 0-2.653 1.2-2.653 2.667l-0.013 16c0 1.467 1.2 2.667 2.667 2.667h21.333c1.467 0 2.667-1.2 2.667-2.667v-16c0-1.467-1.2-2.667-2.667-2.667zM5.333 10.667l10.667 6.667 10.667-6.667v13.333h-21.333v-13.333zM5.333 8h21.333l-10.667 6.667-10.667-6.667z"></path>
    </symbol>
  </defs>
</svg>
